<svg width="13" height="13" viewBox="0 0 13 13" fill="none" xmlns="http://www.w3.org/2000/svg">
<circle cx="6.5" cy="6.5" r="6.5" fill="#098EA6"/>
<path d="M9.48061 6.27628L7.25678 4.19715C7.1933 4.1378 7.10869 4.10522 7.01847 4.10522C6.92816 4.10522 6.8436 4.13785 6.78012 4.19715L6.57821 4.38596C6.51478 4.44522 6.47984 4.52436 6.47984 4.60875C6.47984 4.6931 6.51478 4.77491 6.57821 4.83417L7.87557 6.04974H3.75382C3.56798 6.04974 3.42114 6.18576 3.42114 6.35955V6.62648C3.42114 6.80026 3.56798 6.94999 3.75382 6.94999H7.89029L6.57826 8.17235C6.51483 8.2317 6.47989 8.3087 6.47989 8.39309C6.47989 8.47738 6.51483 8.5555 6.57826 8.6148L6.78017 8.80301C6.84365 8.86236 6.92821 8.8947 7.01852 8.8947C7.10874 8.8947 7.19335 8.86193 7.25683 8.80259L9.48066 6.7235C9.54429 6.66397 9.57929 6.58449 9.57904 6.50001C9.57924 6.41524 9.54429 6.33572 9.48061 6.27628Z" fill="white"/>
</svg>
