<svg width="74" height="92" viewBox="0 0 74 92" fill="none" xmlns="http://www.w3.org/2000/svg">
<path d="M45.4261 36.8697H41.3857V16.1622H45.0167L45.4261 36.8697ZM45.5594 45.5525C44.9378 46.1493 44.2126 46.4476 43.3838 46.4476C42.555 46.4476 41.8298 46.1493 41.2082 45.5525C40.6162 44.9259 40.3202 44.1949 40.3202 43.3594C40.3202 42.4941 40.6162 41.7631 41.2082 41.1663C41.8298 40.5397 42.555 40.2264 43.3838 40.2264C44.2126 40.2264 44.9378 40.5397 45.5594 41.1663C46.181 41.7631 46.4917 42.4941 46.4917 43.3594C46.4917 44.1949 46.181 44.9259 45.5594 45.5525Z" fill="white"/>
<path d="M1.51053 76.6669C0.6768 76.6669 0 75.9798 0 75.1333V13.8001C0 6.1915 6.09673 0 13.592 0H72.4902C73.3232 0 74 0.687165 74 1.53366V62.8668C74 63.7133 73.3232 64.3997 72.4902 64.3997H13.592C7.7628 64.3997 3.02037 69.2148 3.02037 75.1333C3.02037 75.9798 2.34357 76.6669 1.51053 76.6669ZM13.592 3.06662C7.7628 3.06662 3.02037 7.88169 3.02037 13.8001V66.4683C5.51395 63.3392 9.32725 61.3331 13.592 61.3331H70.9796V3.06662H13.592Z" fill="white"/>
<path d="M24.1636 76.6669H13.592C12.7583 76.6669 12.0815 75.9797 12.0815 75.1332C12.0815 74.2867 12.7583 73.6003 13.592 73.6003H24.1636C24.9966 73.6003 25.6734 74.2867 25.6734 75.1332C25.6734 75.9797 24.9966 76.6669 24.1636 76.6669Z" fill="white"/>
<path d="M42.2858 76.6669H33.2247C32.391 76.6669 31.7142 75.9797 31.7142 75.1332C31.7142 74.2867 32.391 73.6003 33.2247 73.6003H42.2858C43.1196 73.6003 43.7957 74.2867 43.7957 75.1332C43.7957 75.9797 43.1196 76.6669 42.2858 76.6669Z" fill="white"/>
<path d="M72.4901 76.6669H64.9388C64.1051 76.6669 63.4283 75.9797 63.4283 75.1332C63.4283 74.2867 64.1051 73.6003 64.9388 73.6003H72.4901C73.3231 73.6003 73.9999 74.2867 73.9999 75.1332C73.9999 75.9797 73.3231 76.6669 72.4901 76.6669Z" fill="white"/>
<path d="M1.51053 76.6669C0.6768 76.6669 0 75.9798 0 75.1333V13.8001C0 6.87094 5.11229 0.990319 11.8927 0.119256C12.3234 0.0631033 12.7555 0.199273 13.0797 0.490563C13.406 0.78045 13.592 1.20019 13.592 1.64028V62.9741C13.592 63.7469 13.0258 64.3983 12.2702 64.4951C6.99682 65.1711 3.02037 69.7455 3.02037 75.1333C3.02037 75.9798 2.34357 76.6669 1.51053 76.6669ZM10.5716 3.5249C6.16586 4.86062 3.02037 9.00824 3.02037 13.8001V66.4808C4.89729 64.1224 7.52983 62.3929 10.5716 61.6889V3.5249Z" fill="white"/>
<path d="M1.51053 35.2666C0.6768 35.2666 0 34.5802 0 33.7337V24.319C0 17.3898 5.11229 11.5093 11.8927 10.6382C12.3234 10.5813 12.7555 10.7182 13.0797 11.0095C13.406 11.3008 13.592 11.7191 13.592 12.1592V21.5739C13.592 22.3467 13.0258 22.9987 12.2702 23.0949C6.99682 23.7715 3.02037 28.3451 3.02037 33.7337C3.02037 34.5802 2.34357 35.2666 1.51053 35.2666ZM10.5716 14.0452C6.16586 15.381 3.02037 19.5285 3.02037 24.3204V25.0827C4.89729 22.7243 7.52983 20.9948 10.5716 20.2908V14.0452Z" fill="white"/>
<path d="M1.51053 59.9075C0.6768 59.9075 0 59.2204 0 58.3739V48.9592C0 42.03 5.11229 36.1502 11.8927 35.2791C12.3248 35.2222 12.7555 35.3584 13.0811 35.6497C13.406 35.9396 13.592 36.36 13.592 36.8001V46.2148C13.592 46.9876 13.0258 47.6389 12.2702 47.7358C6.99682 48.4117 3.02037 52.986 3.02037 58.3739C3.02037 59.2204 2.34357 59.9075 1.51053 59.9075ZM10.5716 38.6847C6.16586 40.0198 3.02037 44.1673 3.02037 48.9592V49.7215C4.89729 47.3631 7.52983 45.6336 10.5716 44.9296V38.6847Z" fill="white"/>
<path d="M33.2248 92C32.8321 92 32.4457 91.8435 32.1567 91.5508L28.6939 88.0349L25.2311 91.5508C24.799 91.9895 24.1485 92.1179 23.5851 91.8835C23.0216 91.6455 22.6532 91.0861 22.6532 90.4663V75.1332C22.6532 74.2867 23.3299 73.6003 24.1636 73.6003H33.2247C34.0585 73.6003 34.7346 74.2867 34.7346 75.1332V90.4663C34.7346 91.0861 34.3662 91.6455 33.8027 91.8835C33.6161 91.9614 33.4197 92 33.2248 92ZM28.6939 84.3331C29.0803 84.3331 29.4675 84.4833 29.762 84.7823L31.7143 86.7652V76.6669H25.6735V86.7652L27.6265 84.7823C27.921 84.4833 28.3074 84.3331 28.6939 84.3331Z" fill="white"/>
<path d="M72.4901 82.8001H33.2246C32.3909 82.8001 31.7141 82.113 31.7141 81.2665L31.7143 76.6669H25.6735L25.6734 81.2665C25.6734 82.113 24.9966 82.8001 24.1635 82.8001H13.5919C9.42811 82.8001 6.04065 79.3608 6.04065 75.1332C6.04065 70.9056 9.42811 67.4663 13.5919 67.4663H72.4901C73.3231 67.4663 73.9999 68.1535 73.9999 69V81.2665C73.9999 82.113 73.3231 82.8001 72.4901 82.8001ZM34.7345 79.7335H70.9796V70.5336H13.5919C11.0942 70.5336 9.06102 72.5972 9.06102 75.1332C9.06102 77.6692 11.0942 79.7335 13.5919 79.7335H22.653L22.6532 75.1332C22.6532 74.2867 23.3299 73.6003 24.1636 73.6003H33.2247C34.0585 73.6003 34.7346 74.2867 34.7346 75.1332L34.7345 79.7335Z" fill="white"/>
<path d="M72.4902 88.9336H33.2247C32.391 88.9336 31.7142 88.2464 31.7142 87.3999L31.7143 76.6669H25.6735L25.6735 87.3999C25.6735 88.2464 24.9967 88.9336 24.1636 88.9336H13.592C6.09673 88.9336 0 82.7419 0 75.1333C0 67.5246 6.09673 61.3331 13.592 61.3331L72.4902 61.3333C73.3232 61.3333 74 62.0203 74 62.8668V87.3999C74 88.2464 73.3232 88.9336 72.4902 88.9336ZM34.7346 85.8669H70.9796V64.3999L13.592 64.3997C7.7628 64.3997 3.02037 69.2148 3.02037 75.1333C3.02037 81.0517 7.7628 85.8669 13.592 85.8669H22.6531L22.6532 75.1332C22.6532 74.2867 23.3299 73.6003 24.1636 73.6003H33.2247C34.0585 73.6003 34.7346 74.2867 34.7346 75.1332L34.7346 85.8669Z" fill="white"/>
</svg>
