<svg width="65" height="45" viewBox="0 0 65 45" fill="none" xmlns="http://www.w3.org/2000/svg">
<path d="M14.2503 16.3636C22.0856 16.3636 28.4373 22.7742 28.4373 30.6818C28.4373 38.5894 22.0856 45 14.2503 45C6.41504 45 0.0633347 38.5894 0.0633347 30.6818L0 28.6364C0 14.1871 10.6034 2.23741 24.3856 0.280687C26.5728 -0.0298427 28.3739 1.79086 28.3739 4V4.18182C28.3739 6.39096 26.5659 8.14016 24.3995 8.57258C20.5008 9.35076 16.9164 11.2728 14.0429 14.1728C13.8361 14.3816 13.6344 14.5941 13.4377 14.8102C12.8845 15.4182 13.4283 16.3636 14.2503 16.3636ZM50.7311 16.3636C58.5662 16.3636 64.918 22.7742 64.918 30.6818C64.918 38.5894 58.5662 45 50.7311 45C42.8959 45 36.5441 38.5894 36.5441 30.6818L36.4808 28.6364C36.4808 14.1871 47.0841 2.23739 60.8663 0.280683C63.0535 -0.0298425 64.8547 1.79086 64.8547 4V4.18182C64.8547 6.39096 63.0466 8.14017 60.8802 8.57259C56.9816 9.35077 53.3971 11.2728 50.5237 14.1728C50.3169 14.3816 50.1151 14.5941 49.9185 14.8101C49.3651 15.4181 49.909 16.3636 50.7311 16.3636Z" fill="#0D858C" fill-opacity="0.14"/>
</svg>
