<svg width="45" height="45" viewBox="0 0 45 45" fill="none" xmlns="http://www.w3.org/2000/svg">
<path d="M40.7812 0H9.84375C7.51359 0 5.625 1.88719 5.625 4.21875V5.625C5.625 6.40165 4.9954 7.03125 4.21875 7.03125C1.88859 7.03125 0 8.91844 0 11.25V39.375C0 42.4814 2.51859 45 5.625 45H39.375C42.4814 45 45 42.4814 45 39.375V4.21875C45 1.88719 43.11 0 40.7812 0ZM42.1875 39.375C42.1875 40.9247 40.9247 42.1875 39.375 42.1875H5.625C4.07391 42.1875 2.8125 40.9247 2.8125 39.375V11.25C2.8125 10.4738 3.4425 9.84375 4.21875 9.84375C4.9954 9.84375 5.625 10.4733 5.625 11.25V37.9688C5.625 38.7464 6.25359 39.375 7.03125 39.375C7.80891 39.375 8.4375 38.7464 8.4375 37.9688V4.21875C8.4375 3.4425 9.0675 2.8125 9.84375 2.8125H40.7812C41.5561 2.8125 42.1875 3.4425 42.1875 4.21875V39.375Z" fill="#0D858C"/>
<path d="M27.4191 18.2881H38.6691C39.0587 18.2881 39.3723 17.9731 39.3723 17.585C39.3723 17.1969 39.0587 16.8819 38.6691 16.8819H27.4191C27.0324 16.8819 26.716 17.1969 26.716 17.585C26.716 17.9731 27.0324 18.2881 27.4191 18.2881Z" fill="#0D858C"/>
<path d="M27.4191 14.0694H38.6691C39.0587 14.0694 39.3723 13.7544 39.3723 13.3662C39.3723 12.9781 39.0587 12.6631 38.6691 12.6631H27.4191C27.0324 12.6631 26.716 12.9781 26.716 13.3662C26.716 13.7544 27.0324 14.0694 27.4191 14.0694Z" fill="#0D858C"/>
<path d="M27.4191 9.85062H38.6691C39.0587 9.85062 39.3723 9.53562 39.3723 9.14749C39.3723 8.75937 39.0587 8.44437 38.6691 8.44437H27.4191C27.0324 8.44437 26.716 8.75937 26.716 9.14749C26.716 9.53562 27.0324 9.85062 27.4191 9.85062Z" fill="#0D858C"/>
<path d="M23.2031 37.9742H11.9531C11.565 37.9742 11.25 38.2906 11.25 38.6774C11.25 39.0669 11.565 39.3805 11.9531 39.3805H23.2031C23.5898 39.3805 23.9062 39.0669 23.9062 38.6774C23.9062 38.2906 23.5912 37.9742 23.2031 37.9742Z" fill="#0D858C"/>
<path d="M23.2031 33.7555H11.9531C11.565 33.7555 11.25 34.0719 11.25 34.4586C11.25 34.8481 11.565 35.1617 11.9531 35.1617H23.2031C23.5898 35.1617 23.9062 34.8481 23.9062 34.4586C23.9062 34.0719 23.5912 33.7555 23.2031 33.7555Z" fill="#0D858C"/>
<path d="M23.2031 29.5367H11.9531C11.565 29.5367 11.25 29.8531 11.25 30.2399C11.25 30.6294 11.565 30.943 11.9531 30.943H23.2031C23.5898 30.943 23.9062 30.6294 23.9062 30.2399C23.9062 29.8531 23.5912 29.5367 23.2031 29.5367Z" fill="#0D858C"/>
<path d="M38.6719 37.9742H27.4219C27.0323 37.9742 26.7188 38.2906 26.7188 38.6774C26.7188 39.0669 27.0323 39.3805 27.4219 39.3805H38.6719C39.0586 39.3805 39.375 39.0669 39.375 38.6774C39.375 38.2906 39.0586 37.9742 38.6719 37.9742Z" fill="#0D858C"/>
<path d="M38.6719 33.7555H27.4219C27.0323 33.7555 26.7188 34.0719 26.7188 34.4586C26.7188 34.8481 27.0323 35.1617 27.4219 35.1617H38.6719C39.0586 35.1617 39.375 34.8481 39.375 34.4586C39.375 34.0719 39.0586 33.7555 38.6719 33.7555Z" fill="#0D858C"/>
<path d="M38.6719 29.5367H27.4219C27.0323 29.5367 26.7188 29.8531 26.7188 30.2399C26.7188 30.6294 27.0323 30.943 27.4219 30.943H38.6719C39.0586 30.943 39.375 30.6294 39.375 30.2399C39.375 29.8531 39.0586 29.5367 38.6719 29.5367Z" fill="#0D858C"/>
<path d="M38.6719 21.0992H11.9531C11.565 21.0992 11.25 21.4142 11.25 21.8024C11.25 22.1905 11.565 22.5055 11.9531 22.5055H38.6719C39.0586 22.5055 39.375 22.1905 39.375 21.8024C39.375 21.4142 39.0586 21.0992 38.6719 21.0992Z" fill="#0D858C"/>
<path d="M38.6719 25.318H11.9531C11.565 25.318 11.25 25.6344 11.25 26.0211C11.25 26.4107 11.565 26.7242 11.9531 26.7242H38.6719C39.0586 26.7242 39.375 26.4107 39.375 26.0211C39.375 25.6344 39.0586 25.318 38.6719 25.318Z" fill="#0D858C"/>
<path d="M12.6562 18.2811H22.5C23.2777 18.2811 23.9062 17.6525 23.9062 16.8749V7.03674C23.9062 6.25909 23.2777 5.63049 22.5 5.63049H12.6562C11.8786 5.63049 11.25 6.25909 11.25 7.03674V16.8749C11.25 17.6511 11.8786 18.2811 12.6562 18.2811ZM14.0625 11.953C14.0625 10.0114 15.6365 8.43737 17.5781 8.43737C19.5198 8.43737 21.0938 10.0114 21.0938 11.953C21.0938 13.8946 19.5198 15.4686 17.5781 15.4686C15.6365 15.4686 14.0625 13.8946 14.0625 11.953Z" fill="#0D858C"/>
</svg>
