<svg width="24" height="24" viewBox="0 0 24 24" fill="none" xmlns="http://www.w3.org/2000/svg">
<path d="M22.8727 21.8602L17.1471 15.9194C18.6193 14.1735 19.4259 11.9768 19.4259 9.68999C19.4259 4.34701 15.0685 0 9.71293 0C4.3573 0 0 4.34701 0 9.68999C0 15.033 4.3573 19.38 9.71293 19.38C11.7235 19.38 13.6395 18.775 15.2776 17.6265L21.0466 23.6124C21.2878 23.8622 21.6121 24 21.9597 24C22.2886 24 22.6007 23.8749 22.8376 23.6474C23.341 23.1641 23.3571 22.3628 22.8727 21.8602ZM9.71293 2.52782C13.6716 2.52782 16.892 5.74069 16.892 9.68999C16.892 13.6393 13.6716 16.8522 9.71293 16.8522C5.75428 16.8522 2.53381 13.6393 2.53381 9.68999C2.53381 5.74069 5.75428 2.52782 9.71293 2.52782Z" fill="#38AEB4"/>
</svg>
