<svg width="7" height="5" viewBox="0 0 7 5" fill="none" xmlns="http://www.w3.org/2000/svg">
<path d="M6.48061 2.27628L4.25678 0.19715C4.1933 0.137801 4.10869 0.105225 4.01847 0.105225C3.92816 0.105225 3.8436 0.137848 3.78012 0.19715L3.57821 0.385962C3.51478 0.445217 3.47984 0.524364 3.47984 0.608754C3.47984 0.693097 3.51478 0.774912 3.57821 0.834167C4.04318 1.26982 3.73489 2.04974 3.09772 2.04974H0.753816C0.56798 2.04974 0.421143 2.18576 0.421143 2.35955V2.62648C0.421143 2.80026 0.56798 2.94999 0.753816 2.94999H3.09708C3.73807 2.94999 4.04725 3.73542 3.57826 4.17235C3.51483 4.2317 3.47989 4.3087 3.47989 4.39309C3.47989 4.47738 3.51483 4.5555 3.57826 4.6148L3.78017 4.80301C3.84365 4.86236 3.92821 4.8947 4.01852 4.8947C4.10874 4.8947 4.19335 4.86193 4.25683 4.80259L6.48066 2.7235C6.54429 2.66397 6.57929 2.58449 6.57904 2.50001C6.57924 2.41524 6.54429 2.33572 6.48061 2.27628Z" fill="white"/>
</svg>
