<svg width="87" height="87" viewBox="0 0 87 87" fill="none" xmlns="http://www.w3.org/2000/svg">
<path d="M81.7302 64.2131C90.7872 47.5462 87.9762 26.9289 74.788 13.2952L74.108 8.30853C73.9075 6.87355 72.6824 5.8044 71.2337 5.79998H65.1965C51.7658 -1.93333 35.2342 -1.93333 21.8036 5.79998H15.7664C14.3178 5.80423 13.0927 6.87304 12.892 8.30768L12.212 13.2954C-0.976023 26.9299 -3.78715 47.5475 5.26949 64.2153L4.5888 69.2076C4.47581 70.0374 4.72694 70.8754 5.27748 71.5063C5.82801 72.1373 6.62442 72.4995 7.46178 72.4999H8.70082V75.3999C8.70269 77.0007 9.99985 78.2981 11.6008 78.3H17.4343C32.8758 89.9 54.1246 89.9 69.5659 78.3H75.3994C77.0002 78.2981 78.2975 77.0007 78.2994 75.3999V72.4999H79.5384C80.3758 72.4994 81.1722 72.1373 81.7227 71.5063C82.2732 70.8754 82.5244 70.0374 82.4116 69.2076L81.7302 64.2131ZM43.5001 2.89993C48.6532 2.90485 53.7582 3.88887 58.5438 5.79998H28.4562C33.2418 3.88887 38.347 2.90485 43.5001 2.89993ZM15.7665 8.70003H71.2337L72.4204 17.4H14.5803L15.7665 8.70003ZM5.98281 58.9826C0.395726 45.4883 2.50322 30.0313 11.499 18.5254L5.98281 58.9826ZM7.46314 69.6L14.1848 20.3001H72.8158L76.4799 47.1596C74.4227 49.2918 67.812 55.0953 60.1421 50.9258C60.0913 50.9069 60.0394 50.8911 59.9866 50.8783C59.814 50.8024 59.6264 50.766 59.4379 50.7721C59.3438 50.7716 59.2498 50.7805 59.1574 50.799C59.0631 50.8201 58.971 50.8508 58.8828 50.8906C58.8305 50.9047 58.7792 50.9218 58.7289 50.9421C58.6966 50.9606 58.6787 50.992 58.6485 51.0126C58.4935 51.1281 58.3574 51.267 58.2451 51.4243C58.2249 51.4556 58.1933 51.4744 58.1753 51.5079C58.1562 51.5589 58.1401 51.611 58.1272 51.6641C58.0889 51.7541 58.0601 51.8479 58.0412 51.9439C58.0128 52.1239 58.0147 52.3072 58.047 52.4865C58.0684 52.5847 58.1003 52.6804 58.1421 52.7719C58.1559 52.8229 58.1725 52.8731 58.1923 52.922C62.8008 60.9623 56.2195 67.9944 54.5339 69.6005H7.46314V69.6ZM62.1386 54.8319C63.3044 55.1531 64.5076 55.3184 65.7168 55.3237C69.8254 55.1493 73.7459 53.5534 76.8082 50.8087C76.2327 60.7471 68.4045 68.7327 58.4796 69.5057C60.8815 66.4508 63.9404 61.0414 62.1386 54.8319ZM43.5001 84.0999C36.144 84.1161 28.925 82.1096 22.6321 78.3H64.3679C58.0752 82.1096 50.8562 84.1161 43.5001 84.0999ZM11.6007 75.3999V72.4999H75.3994L75.4009 75.3999H11.6007ZM76.8493 69.6H67.9102C72.438 67.1444 76.0029 63.2305 78.026 58.4934L79.541 69.6H76.8493ZM81.0172 58.9828L75.5008 18.5254C81.0911 25.648 84.1199 34.4456 84.099 43.5C84.0951 48.8128 83.0479 54.0732 81.0172 58.9828Z" fill="white"/>
<path d="M21.7504 11.5999H18.8504C18.0496 11.5999 17.4005 12.249 17.4005 13.0498C17.4005 13.8506 18.0496 14.4997 18.8504 14.4997H21.7504C22.5512 14.4997 23.2003 13.8506 23.2003 13.0498C23.2003 12.249 22.5511 11.5999 21.7504 11.5999Z" fill="white"/>
<path d="M33.3502 11.5999H30.4502C29.6493 11.5999 29.0002 12.249 29.0002 13.0498C29.0002 13.8506 29.6493 14.4997 30.4502 14.4997H33.3502C34.151 14.4997 34.8001 13.8506 34.8001 13.0498C34.8001 12.249 34.151 11.5999 33.3502 11.5999Z" fill="white"/>
<path d="M56.5499 11.5999H53.6499C52.849 11.5999 52.2 12.249 52.2 13.0498C52.2 13.8506 52.849 14.4997 53.6499 14.4997H56.5499C57.3507 14.4997 57.9998 13.8506 57.9998 13.0498C57.9998 12.249 57.3505 11.5999 56.5499 11.5999Z" fill="white"/>
<path d="M44.95 11.5999H42.05C41.2492 11.5999 40.6001 12.249 40.6001 13.0498C40.6001 13.8506 41.2492 14.4997 42.05 14.4997H44.95C45.7508 14.4997 46.3999 13.8506 46.3999 13.0498C46.3999 12.249 45.7508 11.5999 44.95 11.5999Z" fill="white"/>
<path d="M68.1495 11.5999H65.2495C64.4487 11.5999 63.7996 12.249 63.7996 13.0498C63.7996 13.8506 64.4487 14.4997 65.2495 14.4997H68.1495C68.9503 14.4997 69.5994 13.8506 69.5994 13.0498C69.5994 12.249 68.9503 11.5999 68.1495 11.5999Z" fill="white"/>
<path d="M34.8003 39.1503H34.3325L29.6295 27.3929C30.2389 27.1023 30.5649 26.4276 30.414 25.7694C30.2632 25.1113 29.6756 24.6463 29.0005 24.6502H23.2007C22.5256 24.6461 21.938 25.1113 21.7871 25.7694C21.6362 26.4276 21.9621 27.1021 22.5716 27.3929L17.8686 39.1503H17.4008C16.6 39.1503 15.9509 39.7994 15.9509 40.6002C15.9509 41.4011 16.6 42.0502 17.4008 42.0502H18.8474L18.8509 42.0508L18.8557 42.0502H20.3008C20.9759 42.0542 21.5635 41.589 21.7144 40.9309C21.8653 40.2728 21.5394 39.5982 20.9299 39.3074L22.1529 36.25H30.0485L31.2716 39.3074C30.6623 39.598 30.3362 40.2728 30.4871 40.9309C30.638 41.589 31.2256 42.0541 31.9007 42.0502H33.3458L33.3506 42.0508L33.3541 42.0502H34.8006C35.6015 42.0502 36.2506 41.4011 36.2506 40.6002C36.2506 39.7994 35.601 39.1503 34.8003 39.1503ZM23.3126 33.3502L25.6325 27.5502H26.5681L28.888 33.3502H23.3126Z" fill="white"/>
<path d="M43.5001 29H68.1496C68.9504 29 69.5995 28.3509 69.5995 27.55C69.5995 26.7492 68.9504 26.1001 68.1496 26.1001H43.5001C42.6993 26.1001 42.0502 26.7492 42.0502 27.55C42.0502 28.3509 42.6993 29 43.5001 29Z" fill="white"/>
<path d="M43.5001 34.8H68.1496C68.9504 34.8 69.5995 34.1509 69.5995 33.3501C69.5995 32.5492 68.9504 31.9001 68.1496 31.9001H43.5001C42.6993 31.9001 42.0502 32.5492 42.0502 33.3501C42.0502 34.1509 42.6993 34.8 43.5001 34.8Z" fill="white"/>
<path d="M69.5995 39.1499C69.5995 38.3491 68.9504 37.7 68.1496 37.7H43.5001C42.6993 37.7 42.0502 38.3491 42.0502 39.1499C42.0502 39.9507 42.6993 40.5998 43.5001 40.5998H68.1496C68.9503 40.5998 69.5995 39.9506 69.5995 39.1499Z" fill="white"/>
</svg>
