<svg width="17" height="11" viewBox="0 0 17 11" fill="none" xmlns="http://www.w3.org/2000/svg">
<path fill-rule="evenodd" clip-rule="evenodd" d="M4.25 0H1C0.447754 0 0 0.447754 0 1V10C0 10.5525 0.447754 11 1 11H16C16.5522 11 17 10.5525 17 10V1C17 0.447754 16.5522 0 16 0H12.75V2.27319C12.75 2.43335 12.7117 2.58887 12.6407 2.72778C12.5779 2.85107 12.4893 2.96143 12.3789 3.05078L9.12891 5.67944C8.76208 5.97607 8.23792 5.97607 7.87109 5.67944L4.62109 3.05078C4.38635 2.86084 4.25 2.5752 4.25 2.27319V0Z" fill="#098EA6"/>
</svg>
